<?xml version="1.0" standalone="no"?>
<!DOCTYPE svg PUBLIC "-//W3C//DTD SVG 20010904//EN"
 "http://www.w3.org/TR/2001/REC-SVG-20010904/DTD/svg10.dtd">
<svg version="1.0" xmlns="http://www.w3.org/2000/svg"
 width="840.000000pt" height="707.000000pt" viewBox="0 0 840.000000 707.000000"
 preserveAspectRatio="xMidYMid meet">

<g transform="translate(0.000000,707.000000) scale(0.100000,-0.100000)"
fill="#000000" stroke="none">
<path d="M3860 7025 c-212 -39 -434 -108 -740 -232 -570 -229 -766 -376 -876
-654 -72 -185 -110 -463 -96 -713 l7 -118 -30 -21 c-196 -139 -469 -391 -558
-517 -134 -191 -166 -336 -102 -466 52 -107 205 -203 322 -204 38 0 42 -11 30
-100 -11 -76 -2 -506 11 -567 8 -35 6 -45 -7 -57 -32 -29 -168 -85 -232 -95
-102 -17 -104 -17 -118 32 -15 48 -71 145 -100 171 -10 9 -43 30 -72 45 -51
26 -53 29 -92 126 -39 97 -41 103 -40 215 0 63 2 156 4 205 4 83 2 93 -23 136
-88 149 -311 154 -441 10 -50 -56 -76 -110 -93 -199 -16 -83 -12 -156 12 -224
8 -22 14 -44 14 -48 0 -4 -40 -5 -88 -2 -281 16 -480 -122 -499 -344 -5 -67
-1 -94 31 -180 13 -36 13 -46 0 -85 -11 -30 -15 -70 -12 -125 3 -71 8 -91 40
-153 21 -39 45 -101 53 -138 42 -181 195 -292 440 -318 123 -14 308 22 402 77
31 19 53 23 123 23 70 1 95 5 140 26 72 34 115 71 157 136 l34 53 57 0 c122 0
301 44 405 100 31 16 58 30 61 30 2 0 34 -56 71 -124 79 -147 170 -287 257
-394 114 -140 312 -325 469 -435 72 -51 244 -151 278 -162 12 -3 21 -12 21
-18 0 -21 -41 -91 -74 -125 -28 -30 -85 -69 -89 -60 -74 151 -125 210 -229
260 -237 116 -452 60 -620 -161 -56 -73 -156 -271 -188 -371 -56 -175 -65
-365 -24 -506 37 -127 77 -197 169 -289 147 -148 337 -218 590 -219 268 -1
459 92 511 246 25 77 16 215 -20 290 -38 79 -105 166 -160 207 -25 19 -46 38
-46 43 0 4 19 8 43 8 61 0 201 36 271 70 78 37 168 110 229 185 49 60 127 207
127 238 0 21 -2 21 118 0 123 -22 522 -25 657 -5 133 19 314 58 381 81 l58 21
61 -66 c85 -94 163 -206 214 -306 l44 -87 -21 -73 c-41 -137 -23 -269 44 -328
34 -30 35 -30 37 -128 3 -122 31 -186 112 -261 124 -112 287 -148 440 -96 69
23 193 86 262 133 32 22 85 56 118 77 87 55 215 157 313 249 272 258 380 534
312 800 -26 103 -69 177 -149 256 -106 105 -221 150 -382 152 -220 3 -443
-139 -598 -379 l-49 -75 -31 59 c-37 68 -110 167 -179 241 l-49 53 91 61 c229
154 468 396 619 629 173 268 276 541 327 871 l12 76 67 22 c278 93 514 261
665 474 24 33 52 77 61 96 l17 36 93 -4 c84 -4 98 -2 147 21 29 14 60 32 68
39 36 30 70 87 81 134 11 48 13 49 73 73 174 68 307 221 356 410 10 40 20 74
22 75 2 2 35 23 74 48 276 177 382 500 203 624 -39 27 -49 29 -124 28 l-82 0
18 40 c34 75 22 194 -25 259 -77 105 -262 109 -362 7 -16 -16 -32 -30 -36 -30
-4 0 -10 21 -13 48 -13 97 -71 179 -143 203 -45 15 -138 6 -188 -17 -54 -25
-143 -118 -181 -189 -34 -65 -73 -186 -99 -307 -9 -43 -20 -78 -24 -78 -4 0
-29 33 -55 74 -82 127 -187 190 -315 190 -105 -1 -170 -36 -211 -116 -48 -94
-31 -181 65 -321 89 -131 92 -138 120 -291 14 -77 36 -160 50 -192 l26 -56
-31 -35 c-40 -47 -49 -72 -49 -146 0 -67 20 -123 65 -181 l25 -33 -48 -74
c-58 -87 -130 -158 -229 -222 -40 -26 -74 -47 -77 -47 -3 0 -8 17 -11 38 -24
155 -64 328 -102 442 -71 214 -203 465 -335 638 -23 29 -39 54 -37 56 2 2 31
18 64 36 148 80 234 159 277 251 35 74 42 132 23 202 -19 75 -50 119 -117 169
-169 127 -467 211 -849 240 l-164 12 -40 79 c-165 329 -477 671 -700 767 -136
59 -315 75 -485 45z m349 -132 c98 -25 186 -80 295 -184 134 -128 349 -394
304 -377 -47 18 -268 30 -443 24 -347 -11 -697 -75 -1045 -189 -380 -125 -783
-331 -988 -505 l-64 -54 7 68 c37 377 121 570 313 718 111 84 324 183 719 332
257 96 423 146 561 168 53 9 108 18 122 20 39 6 159 -5 219 -21z m551 -646
l125 -12 28 -52 28 -53 -48 0 c-205 -1 -516 -29 -768 -70 -564 -92 -1244 -333
-1745 -619 l-105 -59 -9 39 c-11 49 -7 54 129 159 226 175 462 301 808 430
349 130 669 204 1067 243 82 9 375 5 490 -6z m610 -257 c281 -36 559 -128 665
-221 142 -125 72 -277 -189 -414 l-71 -38 -109 108 c-59 59 -153 140 -207 180
-92 69 -240 162 -283 178 -10 4 -17 9 -15 10 2 2 83 0 179 -4 188 -8 389 -34
570 -74 62 -14 115 -23 118 -21 8 9 -121 67 -221 101 -400 133 -978 128 -1692
-16 -448 -90 -873 -227 -1290 -416 -418 -189 -882 -492 -1062 -694 -92 -102
-173 -231 -173 -274 0 -25 17 -17 25 12 8 35 166 188 294 286 55 42 102 77
105 77 2 0 -13 -39 -34 -87 -41 -96 -91 -261 -117 -390 -10 -46 -22 -83 -28
-83 -5 0 -35 6 -66 14 -76 17 -143 58 -179 108 -26 36 -30 50 -30 107 0 125
87 259 301 466 239 231 538 437 854 589 534 257 1193 443 1755 495 63 6 133
13 155 15 78 8 661 -3 745 -14z m2099 -25 c65 -33 79 -147 35 -281 -34 -105
-101 -239 -137 -274 -16 -16 -26 -33 -23 -39 4 -5 31 -24 60 -41 75 -42 149
-112 198 -182 22 -33 42 -57 45 -54 10 10 -65 150 -104 197 -69 80 -67 68 -24
155 21 44 51 106 66 139 76 164 222 272 316 232 58 -24 74 -51 74 -121 -1 -82
-32 -146 -129 -266 -95 -118 -149 -221 -144 -275 l3 -39 57 74 c103 135 252
253 334 266 61 9 91 -1 114 -39 70 -114 -55 -319 -286 -468 -38 -25 -66 -51
-69 -63 -2 -12 -6 -41 -10 -65 -18 -133 -153 -284 -304 -338 -90 -33 -226 -42
-303 -19 -31 9 -64 16 -74 16 -15 0 -15 -3 5 -24 33 -35 110 -74 180 -90 35
-8 66 -18 69 -21 12 -11 -35 -79 -66 -98 -101 -60 -325 -5 -480 118 -120 94
-184 218 -153 298 16 40 33 42 85 6 41 -27 163 -68 205 -69 16 0 -6 23 -105
108 -127 108 -164 183 -199 405 -17 110 -36 155 -107 245 -89 114 -111 204
-64 259 22 25 31 28 88 28 77 0 143 -29 203 -90 50 -50 102 -151 111 -214 6
-45 8 -47 81 -91 140 -84 232 -205 243 -319 6 -65 7 -65 19 -36 43 101 -48
316 -169 402 -53 37 -57 56 -26 112 14 26 42 108 62 182 20 74 52 168 71 209
66 145 166 210 252 165z m-2423 -256 c130 -67 167 -90 160 -96 -3 -3 -31 11
-63 30 -32 19 -94 54 -139 76 l-81 41 -149 -10 c-353 -25 -744 -99 -1099 -206
-201 -60 -468 -151 -530 -179 -27 -12 -116 -51 -198 -85 -220 -94 -690 -353
-744 -412 -39 -42 -141 -312 -179 -477 -9 -36 -26 -113 -39 -171 -13 -58 -24
-95 -24 -82 -2 44 61 306 101 427 50 150 105 284 126 308 15 17 169 112 347
215 314 180 747 356 1205 487 377 108 787 177 1157 194 22 1 70 -18 149 -60z
m-306 -74 c36 -8 97 -14 137 -15 39 0 74 -3 76 -7 3 -5 -26 -6 -65 -5 -39 2
-74 0 -79 -5 -5 -5 29 -9 79 -9 64 -1 102 -7 142 -22 34 -13 47 -16 36 -7 -11
8 -16 18 -13 22 4 4 12 2 19 -5 8 -8 20 -7 47 3 75 28 104 26 166 -12 314
-188 647 -611 800 -1013 103 -273 161 -680 136 -957 -14 -160 -62 -387 -112
-538 -144 -433 -458 -831 -858 -1090 -255 -165 -711 -318 -981 -329 -47 -2
-67 -2 -45 0 92 9 309 46 343 59 l37 14 -55 -7 c-87 -11 -303 -5 -455 12 -297
34 -520 98 -771 224 -188 93 -390 216 -424 257 -12 14 -10 15 16 9 20 -4 26
-3 19 4 -5 6 -44 15 -85 21 -75 11 -273 70 -235 70 11 0 52 -10 90 -23 39 -13
71 -22 73 -21 2 2 -46 52 -106 111 -123 124 -185 207 -252 338 -26 50 -52 100
-58 111 -23 40 -105 221 -128 281 -30 80 -58 229 -50 268 4 17 27 74 53 126
50 102 66 158 67 231 l1 47 47 5 c82 10 181 77 213 144 23 48 54 188 62 282 5
61 8 70 17 53 30 -56 147 -155 163 -138 3 3 -10 11 -29 19 -42 18 -127 111
-135 149 -9 47 -20 22 -26 -65 -7 -90 -31 -223 -49 -272 -27 -74 -142 -155
-228 -160 l-45 -3 -6 -79 c-8 -93 -37 -174 -85 -236 -54 -70 -64 -68 -58 8 4
41 1 71 -7 87 -12 22 -13 22 -26 -22 -12 -44 -12 -44 -6 -5 8 43 8 47 5 230
-1 66 2 140 7 165 6 25 10 64 11 87 0 37 25 174 48 274 10 40 31 81 32 61 0
-7 10 -23 21 -35 l21 -22 -21 42 c-38 76 -25 149 55 310 31 61 72 130 90 152
56 65 223 177 419 281 55 29 137 73 183 97 46 25 86 42 89 39 12 -11 -19 -79
-59 -134 -22 -30 -38 -56 -35 -58 3 -3 19 15 37 41 18 26 36 43 42 39 7 -4 8
-2 4 4 -8 14 14 52 31 52 6 0 14 6 16 13 3 7 6 6 6 -5 1 -9 6 -20 13 -24 6 -4
8 -3 5 3 -4 6 7 16 25 22 41 15 51 14 45 -4 -4 -8 -2 -17 3 -20 6 -4 10 -2 10
4 0 5 3 17 7 27 4 12 3 15 -5 10 -7 -4 -12 -1 -12 7 0 8 10 19 23 25 l22 11
-22 0 c-31 1 -29 15 5 29 l27 12 -27 -5 c-16 -3 -28 -2 -28 3 0 13 67 45 79
37 6 -3 37 14 69 38 96 75 134 87 347 113 22 3 65 12 95 20 131 37 462 110
555 124 44 6 118 17 165 24 113 18 153 18 230 1z m-2660 -1222 c0 -5 -13 -17
-28 -27 l-27 -19 24 26 c26 28 31 32 31 20z m4721 -149 l24 -27 -27 17 c-26
17 -27 17 -38 -4 -17 -31 5 -59 90 -115 65 -43 71 -50 66 -74 -10 -42 -11 -45
-20 -60 -7 -11 -10 -11 -17 0 -7 11 -9 10 -9 -4 0 -10 -6 -20 -14 -23 -8 -3
-26 -23 -40 -44 -14 -21 -34 -41 -45 -45 -11 -3 -22 -14 -25 -23 -3 -10 -18
-25 -33 -35 -33 -19 -85 -62 -63 -51 31 16 130 91 174 132 45 41 59 61 34 46
-8 -4 -10 -3 -5 2 5 5 10 7 12 4 2 -3 21 11 41 30 l37 35 -21 -31 c-27 -40
-130 -135 -204 -189 -67 -50 -206 -123 -300 -159 l-68 -25 0 149 0 149 50 25
c122 61 268 188 338 293 19 29 36 53 37 53 1 0 12 -12 26 -26z m171 -100 c27
-10 48 -22 48 -25 0 -4 -9 -17 -21 -30 l-20 -24 15 25 15 26 -79 39 c-44 21
-86 45 -92 53 -7 7 10 1 38 -15 27 -16 70 -38 96 -49z m-5972 27 c19 -10 43
-33 54 -50 17 -30 18 -40 6 -138 -22 -189 -9 -260 94 -496 38 -85 49 -123 53
-180 5 -66 -11 -174 -33 -232 -15 -39 26 6 52 57 51 102 67 157 60 216 l-7 56
24 -22 c67 -63 117 -218 118 -362 0 -229 -96 -392 -251 -425 l-34 -7 17 23
c58 81 84 185 71 286 -7 61 -19 61 -29 1 -24 -139 -122 -280 -235 -338 -79
-40 -200 -70 -287 -70 -62 0 -190 28 -238 52 -102 52 -175 145 -175 226 0 21
-13 56 -35 90 -58 96 -61 137 -24 290 11 48 11 56 -9 96 -53 104 -38 202 42
281 60 59 112 80 236 97 140 18 284 -14 352 -79 40 -38 64 -116 49 -162 -6
-20 -18 -45 -26 -55 -14 -18 -17 -18 -72 -3 -91 24 -135 28 -218 17 -70 -9
-202 -56 -191 -68 3 -2 72 -6 153 -7 155 -3 249 -23 299 -64 52 -42 71 -125
45 -189 -12 -27 -18 -32 -35 -27 -12 4 -62 9 -112 12 -69 4 -106 1 -150 -12
-53 -15 -144 -69 -144 -85 0 -4 24 -3 53 2 28 5 103 9 164 9 90 0 121 -4 157
-19 53 -24 66 -45 66 -108 0 -40 -5 -51 -34 -79 -46 -43 -137 -68 -243 -68
-46 0 -83 -3 -83 -7 0 -4 23 -17 52 -31 44 -20 67 -24 154 -24 l102 0 56 39
c74 51 112 123 102 196 -4 27 -13 65 -22 86 -14 34 -14 40 6 87 28 65 24 151
-9 220 l-24 49 29 56 c37 73 40 165 7 228 -25 46 -83 102 -142 136 -93 52
-128 245 -70 377 51 116 168 171 259 122z m957 -143 c-2 -13 -4 -3 -4 22 0 25
2 35 4 23 2 -13 2 -33 0 -45z m5013 13 c-5 -11 -15 -23 -21 -27 -6 -3 -3 5 6
20 20 30 30 35 15 7z m-5030 -251 l-7 -205 -1 146 c-2 124 6 276 13 267 1 -2
-1 -95 -5 -208z m31 -400 c12 -63 26 -123 31 -134 6 -12 6 -22 0 -28 -17 -17
-63 220 -60 312 l1 45 4 -40 c2 -22 13 -92 24 -155z m79 45 c-6 -8 -21 -17
-32 -20 -10 -4 -23 -16 -28 -28 l-9 -22 0 22 c-1 15 10 27 37 41 47 25 47 25
32 7z m-53 -97 c-3 -8 -6 -5 -6 6 -1 11 2 17 5 13 3 -3 4 -12 1 -19z m83 8 c0
-3 -4 -8 -10 -11 -5 -3 -10 -1 -10 4 0 6 5 11 10 11 6 0 10 -2 10 -4z m-47
-61 c-3 -9 -8 -14 -10 -11 -3 3 -2 9 2 15 9 16 15 13 8 -4z m-126 -220 c14
-49 27 -97 29 -105 13 -46 -242 -140 -379 -140 l-53 0 9 73 c5 39 7 109 5 155
-4 77 -3 83 16 87 12 2 52 9 89 16 41 7 100 28 150 53 l82 42 13 -45 c7 -25
25 -86 39 -136z m122 55 c0 -9 -4 -8 -9 5 -5 11 -9 27 -9 35 0 9 4 8 9 -5 5
-11 9 -27 9 -35z m63 -170 c22 -52 56 -126 75 -165 106 -212 288 -465 334
-465 11 0 19 -4 19 -9 0 -6 -10 -9 -21 -8 -47 3 -232 258 -332 456 -57 112
-122 268 -131 317 l-6 29 11 -30 c6 -16 30 -73 51 -125z m98 -6 c0 -2 -9 0
-20 6 -11 6 -20 13 -20 16 0 2 9 0 20 -6 11 -6 20 -13 20 -16z m65 -55 c22
-22 32 -37 23 -34 -15 6 -75 75 -66 75 2 0 22 -18 43 -41z m535 -856 c114 -84
201 -139 335 -210 112 -59 123 -72 16 -18 -96 48 -241 137 -336 205 -89 65
-267 223 -292 261 -9 13 28 -19 83 -72 54 -53 142 -128 194 -166z m570 -310
c52 -18 79 -31 60 -27 -41 7 -190 63 -190 71 0 3 8 2 18 -2 9 -4 60 -23 112
-42z m1859 -3 c45 -38 139 -147 155 -180 4 -8 -3 -1 -15 15 -13 17 -59 67
-103 113 l-81 82 -121 -53 -121 -53 43 -48 c24 -27 57 -70 74 -95 33 -48 23
-37 -65 69 -29 36 -55 69 -57 74 -2 6 199 103 240 115 2 1 25 -17 51 -39z
m-1664 -51 c13 -6 5 -6 -20 -2 -22 3 -49 10 -60 14 -13 6 -5 6 20 2 22 -3 49
-10 60 -14z m58 -16 c-7 -2 -19 -2 -25 0 -7 3 -2 5 12 5 14 0 19 -2 13 -5z
m60 -10 c-7 -2 -21 -2 -30 0 -10 3 -4 5 12 5 17 0 24 -2 18 -5z m-413 -28 c69
-30 54 -33 -17 -3 -29 12 -54 20 -55 17 -2 -2 -16 -29 -31 -60 -52 -104 -136
-167 -252 -191 -47 -9 -70 -8 -136 6 -44 9 -84 14 -89 11 -19 -12 -41 -66 -42
-103 -3 -62 27 -108 80 -129 75 -29 244 -24 349 11 45 15 85 31 88 36 4 6 -19
1 -49 -11 -50 -18 -113 -30 -156 -29 -49 1 -65 -1 -68 -10 -2 -6 -11 -10 -20
-10 -15 0 -15 2 -2 10 11 7 3 10 -30 11 -25 0 -54 5 -65 10 -17 8 -16 9 8 6
19 -3 27 0 28 12 0 9 1 36 2 61 2 43 3 44 37 46 51 3 52 3 44 17 -5 8 -2 8 9
-2 9 -7 17 -9 17 -3 0 5 -7 15 -15 22 -13 11 -13 15 -3 21 19 12 48 11 48 -2
0 -6 -7 -9 -15 -5 -8 3 -15 1 -15 -4 0 -6 11 -10 25 -10 19 0 25 5 23 18 -2 9
3 16 10 15 6 -2 12 2 12 8 0 5 9 9 20 7 10 -2 19 2 20 7 1 14 68 47 80 40 6
-3 10 -1 10 6 0 10 3 10 12 1 10 -10 17 -7 33 11 23 27 57 43 49 24 -2 -7 7
-17 21 -23 23 -11 24 -11 13 10 -11 21 -11 21 11 2 13 -12 21 -14 21 -7 0 7 4
10 9 7 4 -3 7 -17 6 -31 -2 -14 2 -28 7 -32 7 -3 8 -1 4 5 -4 7 4 9 28 5 31
-5 36 -3 42 21 3 14 10 26 15 26 5 0 9 -2 9 -5 0 -11 -56 -95 -63 -95 -5 0 -5
6 -1 13 4 7 3 9 -2 4 -5 -5 -10 -13 -10 -18 -1 -5 -2 -13 -3 -19 0 -5 -8 -10
-16 -10 -8 0 -15 -4 -15 -10 0 -5 -5 -9 -12 -7 -7 1 -12 -3 -13 -10 0 -6 -18
-26 -40 -43 -53 -42 -55 -45 -18 -26 48 24 151 123 180 174 l26 44 -24 19
c-14 12 -35 18 -51 16 -17 -2 -29 2 -33 11 -10 28 6 27 58 -1 l50 -29 19 24
c30 39 23 51 -42 72 -33 11 -58 21 -56 23 5 5 118 -28 130 -38 4 -4 -11 -45
-35 -91 -111 -215 -323 -336 -573 -326 -113 4 -165 23 -200 71 -30 40 -28 120
4 171 23 38 23 38 69 30 25 -5 87 -9 136 -8 75 0 99 4 140 24 62 30 128 98
161 167 15 29 31 53 38 53 6 -1 36 -12 66 -25z m478 18 c-10 -2 -26 -2 -35 0
-10 3 -2 5 17 5 19 0 27 -2 18 -5z m100 -10 c-16 -2 -40 -2 -55 0 -16 2 -3 4
27 4 30 0 43 -2 28 -4z m260 -10 c-43 -2 -113 -2 -155 0 -43 1 -8 3 77 3 85 0
120 -2 78 -3z m-818 -93 c0 -5 -4 -10 -10 -10 -5 0 -10 5 -10 10 0 6 5 10 10
10 6 0 10 -4 10 -10z m-5 -20 c16 -7 12 -9 -17 -8 -20 1 -34 6 -32 10 6 10 23
9 49 -2z m2143 -37 c9 -16 9 -22 -1 -26 -8 -3 -12 6 -13 25 -1 32 -1 32 14 1z
m-2078 -25 c0 -5 -7 -3 -15 6 -8 8 -15 18 -15 22 0 3 7 1 15 -6 8 -7 15 -17
15 -22z m2050 -13 c0 -2 -13 -11 -30 -20 -16 -8 -56 -36 -87 -62 -32 -25 -47
-34 -33 -19 22 24 135 106 146 106 2 0 4 -2 4 -5z m-229 -90 l10 -20 -16 20
c-9 11 -21 29 -26 40 l-10 20 16 -20 c9 -11 21 -29 26 -40z m-2324 -11 c-3 -3
-12 -4 -19 -1 -8 3 -5 6 6 6 11 1 17 -2 13 -5z"/>
<path d="M4330 6241 c-69 -7 -64 -8 65 -10 77 -2 132 -5 122 -8 -11 -3 -16
-11 -13 -19 3 -8 2 -12 -3 -9 -5 3 -13 0 -17 -6 -4 -7 -3 -9 2 -6 6 3 16 1 24
-4 12 -8 12 -12 2 -16 -6 -2 -10 -9 -6 -14 3 -5 1 -9 -5 -9 -5 0 -12 8 -14 18
-4 13 -5 12 -6 -5 -1 -16 -9 -23 -28 -26 -16 -3 -3 -3 27 -1 30 2 142 7 247
11 l193 6 -23 41 -22 41 -75 6 c-136 12 -394 17 -470 10z m220 -91 c0 -5 -5
-10 -11 -10 -5 0 -7 5 -4 10 3 6 8 10 11 10 2 0 4 -4 4 -10z"/>
<path d="M4193 6223 c9 -2 25 -2 35 0 9 3 1 5 -18 5 -19 0 -27 -2 -17 -5z"/>
<path d="M4103 6213 c9 -2 23 -2 30 0 6 3 -1 5 -18 5 -16 0 -22 -2 -12 -5z"/>
<path d="M4023 6203 c9 -2 23 -2 30 0 6 3 -1 5 -18 5 -16 0 -22 -2 -12 -5z"/>
<path d="M3958 6193 c7 -3 16 -2 19 1 4 3 -2 6 -13 5 -11 0 -14 -3 -6 -6z"/>
<path d="M3898 6183 c7 -3 16 -2 19 1 4 3 -2 6 -13 5 -11 0 -14 -3 -6 -6z"/>
<path d="M3848 6173 c6 -2 18 -2 25 0 6 3 1 5 -13 5 -14 0 -19 -2 -12 -5z"/>
<path d="M3748 6153 c7 -3 16 -2 19 1 4 3 -2 6 -13 5 -11 0 -14 -3 -6 -6z"/>
<path d="M4353 6113 c9 -2 23 -2 30 0 6 3 -1 5 -18 5 -16 0 -22 -2 -12 -5z"/>
<path d="M4278 6103 c6 -2 18 -2 25 0 6 3 1 5 -13 5 -14 0 -19 -2 -12 -5z"/>
<path d="M4193 6093 c9 -2 23 -2 30 0 6 3 -1 5 -18 5 -16 0 -22 -2 -12 -5z"/>
<path d="M4128 6083 c6 -2 18 -2 25 0 6 3 1 5 -13 5 -14 0 -19 -2 -12 -5z"/>
<path d="M4073 6073 c9 -2 23 -2 30 0 6 3 -1 5 -18 5 -16 0 -22 -2 -12 -5z"/>
<path d="M3285 6025 c-39 -17 -21 -18 25 0 19 7 28 14 20 14 -8 0 -28 -6 -45
-14z"/>
<path d="M3220 6000 c-8 -5 -10 -10 -5 -10 6 0 17 5 25 10 8 5 11 10 5 10 -5
0 -17 -5 -25 -10z"/>
<path d="M3155 5975 c-25 -12 -26 -14 -5 -9 28 7 60 23 45 23 -5 0 -23 -6 -40
-14z"/>
<path d="M3090 5950 c-9 -6 -10 -10 -3 -10 6 0 15 5 18 10 8 12 4 12 -15 0z"/>
<path d="M3023 5924 c-18 -8 -33 -16 -33 -18 0 -7 45 7 65 21 25 17 9 16 -32
-3z"/>
<path d="M2910 5875 c-14 -8 -20 -14 -15 -14 6 0 21 6 35 14 14 8 21 14 15 14
-5 0 -21 -6 -35 -14z"/>
<path d="M2862 5853 c-6 -3 -9 -10 -6 -15 4 -7 2 -8 -5 -4 -35 22 -535 -297
-572 -365 -8 -15 -4 -69 6 -69 1 0 54 29 116 66 107 61 392 204 467 234 l34
13 -24 13 c-20 12 -21 13 -4 14 20 0 20 0 0 15 -10 8 -14 15 -7 15 6 0 9 9 5
22 -3 13 -1 19 5 15 6 -4 16 0 23 9 11 12 11 17 0 27 -10 9 -11 9 -6 0 4 -7 4
-19 -1 -25 -5 -9 -9 -5 -13 13 -3 15 -10 24 -18 22z"/>
<path d="M3040 5780 c-8 -5 -10 -10 -5 -10 6 0 17 5 25 10 8 5 11 10 5 10 -5
0 -17 -5 -25 -10z"/>
<path d="M2983 5760 c-34 -14 -28 -21 7 -9 17 6 30 13 30 15 0 6 -12 4 -37 -6z"/>
<path d="M5528 5753 c7 -3 16 -2 19 1 4 3 -2 6 -13 5 -11 0 -14 -3 -6 -6z"/>
<path d="M1965 4720 c-3 -5 -1 -10 4 -10 6 0 11 5 11 10 0 6 -2 10 -4 10 -3 0
-8 -4 -11 -10z"/>
<path d="M4822 5575 c-86 -19 -146 -56 -177 -109 -22 -38 -35 -116 -19 -116 3
0 39 16 79 36 163 81 294 52 513 -114 40 -30 74 -53 77 -50 8 7 -36 130 -60
168 -12 19 -30 41 -39 49 -17 14 -23 36 -6 26 20 -12 9 8 -16 32 -15 13 -32
22 -40 19 -7 -3 -32 5 -56 18 -86 47 -166 60 -256 41z m343 -85 c10 -11 14
-20 8 -20 -5 0 -18 9 -28 20 -10 11 -14 20 -8 20 5 0 18 -9 28 -20z"/>
<path d="M4718 5564 c-39 -21 -35 -28 5 -8 37 19 44 24 31 24 -5 -1 -21 -8
-36 -16z"/>
<path d="M3508 5425 c-79 -22 -134 -53 -186 -109 -57 -61 -86 -112 -107 -193
-16 -61 -20 -183 -7 -183 5 0 19 19 32 43 38 70 126 182 173 220 24 20 70 49
103 64 51 24 71 28 149 27 67 0 104 -6 144 -22 30 -12 57 -20 59 -17 9 8 -41
76 -80 110 -79 67 -178 88 -280 60z"/>
<path d="M5230 5422 c0 -5 7 -15 15 -22 8 -7 15 -8 15 -2 0 5 -7 15 -15 22 -8
7 -15 8 -15 2z"/>
<path d="M4808 5403 c6 -2 18 -2 25 0 6 3 1 5 -13 5 -14 0 -19 -2 -12 -5z"/>
<path d="M4873 5403 c15 -2 39 -2 55 0 15 2 2 4 -28 4 -30 0 -43 -2 -27 -4z"/>
<path d="M3805 5370 c10 -11 20 -20 23 -20 3 0 -3 9 -13 20 -10 11 -20 20 -23
20 -3 0 3 -9 13 -20z"/>
<path d="M5266 5367 c3 -10 9 -15 12 -12 3 3 0 11 -7 18 -10 9 -11 8 -5 -6z"/>
<path d="M4680 5360 c-9 -6 -10 -10 -3 -10 6 0 15 5 18 10 8 12 4 12 -15 0z"/>
<path d="M5291 5304 c0 -11 3 -14 6 -6 3 7 2 16 -1 19 -3 4 -6 -2 -5 -13z"/>
<path d="M3601 5279 c-24 -5 -47 -11 -50 -15 -3 -4 5 -4 19 -1 14 4 49 7 78 7
33 0 51 4 47 10 -7 12 -32 11 -94 -1z"/>
<path d="M3718 5273 c7 -3 16 -2 19 1 4 3 -2 6 -13 5 -11 0 -14 -3 -6 -6z"/>
<path d="M5306 5257 c3 -10 9 -15 12 -12 3 3 0 11 -7 18 -10 9 -11 8 -5 -6z"/>
<path d="M3830 5240 c8 -5 20 -10 25 -10 6 0 3 5 -5 10 -8 5 -19 10 -25 10 -5
0 -3 -5 5 -10z"/>
<path d="M5220 5246 c0 -2 8 -10 18 -17 15 -13 16 -12 3 4 -13 16 -21 21 -21
13z"/>
<path d="M3439 5203 c-13 -16 -12 -17 4 -4 9 7 17 15 17 17 0 8 -8 3 -21 -13z"/>
<path d="M4858 5183 c6 -2 18 -2 25 0 6 3 1 5 -13 5 -14 0 -19 -2 -12 -5z"/>
<path d="M5008 5173 c7 -3 16 -2 19 1 4 3 -2 6 -13 5 -11 0 -14 -3 -6 -6z"/>
<path d="M4823 5152 c-77 -27 -128 -68 -173 -134 -45 -68 -66 -128 -83 -240
-20 -139 15 -340 86 -489 15 -31 27 -58 27 -61 0 -2 -22 -19 -49 -36 -48 -31
-111 -111 -111 -139 0 -9 19 2 48 25 72 61 108 75 198 80 95 5 141 -7 190 -51
70 -61 82 -128 38 -215 -32 -65 -77 -104 -149 -131 -59 -22 -162 -27 -242 -12
-24 5 -43 5 -43 2 0 -4 28 -22 63 -41 58 -32 68 -35 152 -35 77 0 98 4 147 27
90 42 134 83 174 162 30 61 35 80 33 130 -3 68 9 81 96 111 51 17 252 36 302
28 27 -4 27 -4 8 12 -25 20 -109 45 -152 45 -18 0 -33 3 -33 8 0 4 11 46 24
94 46 167 43 325 -10 480 -94 278 -341 452 -541 380z m220 -114 c78 -37 145
-108 199 -215 75 -145 83 -182 83 -383 -1 -129 -4 -185 -15 -215 -14 -38 -17
-40 -68 -47 -30 -3 -76 -18 -103 -32 l-50 -25 -44 46 c-39 41 -43 49 -31 62
112 129 53 459 -96 537 -64 33 -136 6 -178 -68 -23 -40 -25 -52 -24 -173 0
-104 5 -143 22 -195 12 -35 20 -65 19 -66 -1 -1 -12 -5 -24 -8 -20 -6 -24 -1
-42 61 -39 127 -53 238 -49 378 4 105 9 142 28 190 27 70 106 155 160 172 56
19 147 11 213 -19z m-211 -385 c33 -29 20 -143 -17 -143 -22 0 -45 41 -45 80
0 32 22 80 37 80 4 0 15 -7 25 -17z"/>
<path d="M3186 5118 c-3 -13 -5 -34 -5 -48 1 -15 5 -7 10 19 9 47 6 68 -5 29z"/>
<path d="M3334 5098 l-19 -23 23 19 c21 18 27 26 19 26 -2 0 -12 -10 -23 -22z"/>
<path d="M3718 5083 c12 -2 30 -2 40 0 9 3 -1 5 -23 4 -22 0 -30 -2 -17 -4z"/>
<path d="M3658 5073 c7 -3 16 -2 19 1 4 3 -2 6 -13 5 -11 0 -14 -3 -6 -6z"/>
<path d="M3798 5073 c7 -3 16 -2 19 1 4 3 -2 6 -13 5 -11 0 -14 -3 -6 -6z"/>
<path d="M3299 5053 c-13 -16 -12 -17 4 -4 16 13 21 21 13 21 -2 0 -10 -8 -17
-17z"/>
<path d="M3623 5046 c-206 -67 -325 -287 -310 -570 6 -129 37 -247 93 -362 24
-50 44 -93 44 -97 0 -4 -7 -7 -16 -7 -22 0 -129 -58 -149 -80 -16 -17 -13 -17
46 1 35 11 109 25 166 31 136 14 256 -5 404 -65 l105 -43 30 30 c60 62 135
165 164 229 82 174 54 479 -61 674 -50 84 -172 204 -243 238 -49 24 -75 30
-145 32 -54 2 -102 -2 -128 -11z m252 -116 c83 -41 165 -131 218 -240 70 -142
82 -198 81 -375 0 -137 -3 -157 -28 -230 -26 -76 -57 -126 -115 -186 l-25 -26
-50 39 c-28 21 -76 50 -106 65 -30 15 -57 28 -59 30 -3 2 7 16 22 31 51 54 71
117 72 227 0 120 -24 202 -83 280 -118 157 -278 88 -290 -125 -7 -126 41 -281
108 -346 16 -16 30 -32 30 -36 0 -3 -33 -6 -73 -7 l-73 -1 -22 53 c-108 263
-121 511 -35 687 35 71 116 152 173 173 68 25 191 19 255 -13z m-229 -425 c19
-29 21 -100 3 -121 -46 -55 -106 62 -63 124 20 29 40 28 60 -3z"/>
<path d="M3880 5050 c8 -5 20 -10 25 -10 6 0 3 5 -5 10 -8 5 -19 10 -25 10 -5
0 -3 -5 5 -10z"/>
<path d="M3172 5000 c0 -19 2 -27 5 -17 2 9 2 25 0 35 -3 9 -5 1 -5 -18z"/>
<path d="M3260 4990 c-11 -22 -18 -40 -15 -40 2 0 14 18 25 40 11 22 18 40 15
40 -2 0 -14 -18 -25 -40z"/>
<path d="M2920 5011 c0 -16 18 -22 24 -9 3 7 3 3 0 -9 -3 -13 -1 -23 5 -23 28
0 6 -43 -43 -85 -75 -63 -83 -93 -57 -188 27 -95 26 -140 -4 -205 -13 -28 -26
-69 -29 -90 -5 -32 -3 -31 10 13 9 28 20 52 24 55 14 10 30 75 30 124 0 28 -8
76 -16 106 -27 90 -24 106 36 161 29 27 56 46 61 43 10 -6 11 25 3 79 -5 27
-11 37 -25 37 -11 0 -19 -4 -19 -9z"/>
<path d="M4005 4970 c10 -11 20 -20 23 -20 3 0 -3 9 -13 20 -10 11 -20 20 -23
20 -3 0 3 -9 13 -20z"/>
<path d="M4566 4894 c-4 -14 -5 -28 -3 -31 3 -2 8 8 11 23 4 14 5 28 3 31 -3
2 -8 -8 -11 -23z"/>
<path d="M4070 4906 c0 -2 8 -10 18 -17 15 -13 16 -12 3 4 -13 16 -21 21 -21
13z"/>
<path d="M5337 4875 c9 -19 18 -33 21 -31 4 5 -26 66 -33 66 -3 0 3 -16 12
-35z"/>
<path d="M3374 4875 c-9 -14 -15 -27 -13 -30 3 -2 12 10 21 26 21 36 15 39 -8
4z"/>
<path d="M4100 4866 c0 -2 8 -10 18 -17 15 -13 16 -12 3 4 -13 16 -21 21 -21
13z"/>
<path d="M4140 4810 c6 -11 13 -20 16 -20 2 0 0 9 -6 20 -6 11 -13 20 -16 20
-2 0 0 -9 6 -20z"/>
<path d="M4543 4765 c0 -22 2 -30 4 -17 2 12 2 30 0 40 -3 9 -5 -1 -4 -23z"/>
<path d="M4177 4745 c9 -19 18 -33 21 -31 4 5 -26 66 -33 66 -3 0 3 -16 12
-35z"/>
<path d="M5401 4694 c0 -11 3 -14 6 -6 3 7 2 16 -1 19 -3 4 -6 -2 -5 -13z"/>
<path d="M4541 4664 c0 -11 3 -14 6 -6 3 7 2 16 -1 19 -3 4 -6 -2 -5 -13z"/>
<path d="M5412 4650 c0 -14 2 -19 5 -12 2 6 2 18 0 25 -3 6 -5 1 -5 -13z"/>
<path d="M3292 4610 c0 -19 2 -27 5 -17 2 9 2 25 0 35 -3 9 -5 1 -5 -18z"/>
<path d="M4543 4605 c0 -22 2 -30 4 -17 2 12 2 30 0 40 -3 9 -5 -1 -4 -23z"/>
<path d="M5424 4525 c0 -49 1 -71 3 -48 2 23 2 64 0 90 -2 26 -3 8 -3 -42z"/>
<path d="M4257 4475 c3 -38 7 -72 9 -74 7 -8 2 84 -6 114 -5 18 -6 2 -3 -40z"/>
<path d="M6081 4505 c0 -11 4 -27 9 -35 9 -13 10 -13 9 0 0 8 -4 24 -9 35 l-9
20 0 -20z"/>
<path d="M4561 4484 c0 -11 3 -14 6 -6 3 7 2 16 -1 19 -3 4 -6 -2 -5 -13z"/>
<path d="M3293 4425 c0 -22 2 -30 4 -17 2 12 2 30 0 40 -3 9 -5 -1 -4 -23z"/>
<path d="M5412 4375 c0 -16 2 -22 5 -12 2 9 2 23 0 30 -3 6 -5 -1 -5 -18z"/>
<path d="M4263 4325 c0 -38 2 -53 4 -32 2 20 2 52 0 70 -2 17 -4 1 -4 -38z"/>
<path d="M6121 4374 c0 -11 3 -14 6 -6 3 7 2 16 -1 19 -3 4 -6 -2 -5 -13z"/>
<path d="M3301 4354 c0 -11 3 -14 6 -6 3 7 2 16 -1 19 -3 4 -6 -2 -5 -13z"/>
<path d="M2801 4309 c1 -30 5 -81 9 -114 6 -43 7 -28 3 50 -6 114 -14 159 -12
64z"/>
<path d="M6131 4334 c0 -11 3 -14 6 -6 3 7 2 16 -1 19 -3 4 -6 -2 -5 -13z"/>
<path d="M5401 4324 c0 -11 3 -14 6 -6 3 7 2 16 -1 19 -3 4 -6 -2 -5 -13z"/>
<path d="M3311 4304 c0 -11 3 -14 6 -6 3 7 2 16 -1 19 -3 4 -6 -2 -5 -13z"/>
<path d="M6141 4284 c0 -11 3 -14 6 -6 3 7 2 16 -1 19 -3 4 -6 -2 -5 -13z"/>
<path d="M3321 4264 c0 -11 3 -14 6 -6 3 7 2 16 -1 19 -3 4 -6 -2 -5 -13z"/>
<path d="M2312 4258 c8 -7 25 -22 38 -33 20 -16 19 -13 -4 13 -17 17 -34 32
-39 32 -4 0 -2 -6 5 -12z"/>
<path d="M4640 4246 c0 -22 3 -27 11 -19 8 8 8 16 0 30 -9 16 -10 14 -11 -11z"/>
<path d="M6151 4244 c0 -11 3 -14 6 -6 3 7 2 16 -1 19 -3 4 -6 -2 -5 -13z"/>
<path d="M4252 4220 c0 -14 2 -19 5 -12 2 6 2 18 0 25 -3 6 -5 1 -5 -13z"/>
<path d="M6162 4195 c0 -16 2 -22 5 -12 2 9 2 23 0 30 -3 6 -5 -1 -5 -18z"/>
<path d="M4232 4153 c-15 -48 -8 -55 8 -8 7 20 10 38 8 41 -3 2 -10 -13 -16
-33z"/>
<path d="M6172 4140 c0 -14 2 -19 5 -12 2 6 2 18 0 25 -3 6 -5 1 -5 -13z"/>
<path d="M2392 4130 c0 -14 2 -19 5 -12 2 6 2 18 0 25 -3 6 -5 1 -5 -13z"/>
<path d="M4533 4128 c-15 -20 -25 -38 -20 -38 3 0 12 11 21 25 17 26 16 35 -1
13z"/>
<path d="M4708 4133 c7 -3 16 -2 19 1 4 3 -2 6 -13 5 -11 0 -14 -3 -6 -6z"/>
<path d="M2150 4098 c0 -36 4 -35 14 5 4 16 2 27 -4 27 -5 0 -10 -14 -10 -32z"/>
<path d="M5463 4113 c15 -2 39 -2 55 0 15 2 2 4 -28 4 -30 0 -43 -2 -27 -4z"/>
<path d="M5303 4103 c9 -2 25 -2 35 0 9 3 1 5 -18 5 -19 0 -27 -2 -17 -5z"/>
<path d="M6181 4074 c0 -11 3 -14 6 -6 3 7 2 16 -1 19 -3 4 -6 -2 -5 -13z"/>
<path d="M2379 4048 c-7 -18 -15 -37 -17 -43 -3 -5 2 -4 10 3 16 13 33 60 25
69 -3 2 -11 -11 -18 -29z"/>
<path d="M4554 4048 l-19 -23 23 19 c12 11 22 21 22 23 0 8 -8 2 -26 -19z"/>
<path d="M5144 4046 c-3 -8 -4 -23 -1 -33 3 -12 5 -9 6 9 0 14 7 29 14 31 9 4
9 6 -1 6 -7 1 -15 -5 -18 -13z"/>
<path d="M3410 4030 c-13 -8 -12 -10 3 -10 9 0 17 5 17 10 0 12 -1 12 -20 0z"/>
<path d="M6193 3980 c0 -25 2 -35 4 -22 2 12 2 32 0 45 -2 12 -4 2 -4 -23z"/>
<path d="M2142 3985 c0 -16 2 -22 5 -12 2 9 2 23 0 30 -3 6 -5 -1 -5 -18z"/>
<path d="M2328 3972 c-21 -30 -59 -46 -123 -53 l-60 -6 58 -1 c33 -1 70 4 85
12 32 17 80 66 64 66 -6 0 -17 -8 -24 -18z"/>
<path d="M4992 3940 c0 -14 2 -19 5 -12 2 6 2 18 0 25 -3 6 -5 1 -5 -13z"/>
<path d="M3498 3943 c12 -2 32 -2 45 0 12 2 2 4 -23 4 -25 0 -35 -2 -22 -4z"/>
<path d="M3638 3943 c6 -2 18 -2 25 0 6 3 1 5 -13 5 -14 0 -19 -2 -12 -5z"/>
<path d="M5141 3934 c0 -11 3 -14 6 -6 3 7 2 16 -1 19 -3 4 -6 -2 -5 -13z"/>
<path d="M3418 3933 c6 -2 18 -2 25 0 6 3 1 5 -13 5 -14 0 -19 -2 -12 -5z"/>
<path d="M3705 3930 c17 -4 39 -8 50 -8 16 0 15 2 -5 8 -14 4 -36 8 -50 8 -22
0 -22 -1 5 -8z"/>
<path d="M3310 3910 c-18 -12 -2 -12 25 0 13 6 15 9 5 9 -8 0 -22 -4 -30 -9z"/>
<path d="M6204 3830 c0 -52 1 -74 3 -47 2 26 2 68 0 95 -2 26 -3 4 -3 -48z"/>
<path d="M3870 3885 c14 -8 30 -14 35 -14 6 0 -1 6 -15 14 -14 8 -29 14 -35
14 -5 0 1 -6 15 -14z"/>
<path d="M4959 3873 c-13 -16 -12 -17 4 -4 16 13 21 21 13 21 -2 0 -10 -8 -17
-17z"/>
<path d="M3940 3855 c14 -8 30 -14 35 -14 6 0 -1 6 -15 14 -14 8 -29 14 -35
14 -5 0 1 -6 15 -14z"/>
<path d="M4924 3828 l-19 -23 23 19 c12 11 22 21 22 23 0 8 -8 2 -26 -19z"/>
<path d="M4860 3790 c-9 -6 -10 -10 -3 -10 6 0 15 5 18 10 8 12 4 12 -15 0z"/>
<path d="M5264 3779 c-69 -21 -104 -49 -63 -49 55 -1 53 -16 -7 -64 -104 -81
-262 -147 -442 -183 -68 -14 -138 -18 -317 -18 -271 0 -362 14 -611 96 -149
48 -212 83 -164 91 33 5 24 22 -20 36 -35 12 -51 12 -117 -3 -63 -14 -83 -24
-120 -58 -43 -39 -72 -84 -88 -136 -6 -21 -2 -19 51 18 66 46 122 67 129 48 3
-7 23 -75 45 -152 76 -261 162 -453 270 -605 115 -162 246 -270 390 -321 91
-33 286 -33 372 -1 165 60 305 212 402 437 52 121 102 297 127 447 l22 135 45
28 c24 16 78 59 118 97 77 71 95 78 132 52 22 -15 22 -15 22 26 0 33 -6 48
-29 71 -35 34 -61 36 -147 8z m-1429 -329 c113 -33 298 -69 413 -80 226 -21
408 -10 605 36 60 15 111 24 114 20 9 -9 -45 -92 -78 -120 -90 -76 -196 -106
-400 -113 -135 -5 -170 -3 -262 16 -195 40 -333 101 -427 187 -87 81 -82 88
35 54z m250 -466 c74 -19 185 -87 245 -150 32 -33 37 -42 18 -29 -16 9 -28 21
-28 26 0 12 -122 96 -173 119 -78 35 -143 42 -211 25 -34 -9 -65 -20 -69 -24
-17 -17 65 -140 155 -232 83 -85 221 -157 310 -160 27 -1 28 -3 9 -6 -73 -14
-248 74 -337 168 -85 91 -175 222 -161 236 11 10 124 42 152 42 17 1 58 -6 90
-15z m405 -96 c73 -35 166 -123 194 -182 17 -36 17 -38 -1 -58 -23 -26 -118
-74 -163 -82 -23 -4 -13 2 28 18 34 13 80 36 102 50 l40 26 -15 38 c-20 47
-85 114 -152 158 -55 36 -152 67 -166 54 -5 -4 1 -26 12 -48 12 -23 21 -45 21
-49 0 -14 -60 91 -60 106 0 22 85 6 160 -31z m-27 -335 c-13 -2 -35 -2 -50 0
-16 2 -5 4 22 4 28 0 40 -2 28 -4z"/>
<path d="M6065 3730 c-16 -7 -13 -9 15 -8 19 0 46 4 60 8 21 7 19 8 -15 8 -22
0 -49 -3 -60 -8z"/>
<path d="M5982 3722 c-28 -9 -92 -59 -92 -73 0 -6 14 3 30 20 17 16 52 36 78
44 26 8 38 15 27 15 -11 0 -30 -3 -43 -6z"/>
<path d="M3573 3713 c9 -2 23 -2 30 0 6 3 -1 5 -18 5 -16 0 -22 -2 -12 -5z"/>
<path d="M3480 3700 c-11 -8 -7 -9 15 -4 37 8 45 14 19 14 -10 0 -26 -5 -34
-10z"/>
<path d="M5461 3684 c0 -11 3 -14 6 -6 3 7 2 16 -1 19 -3 4 -6 -2 -5 -13z"/>
<path d="M5345 3660 c-3 -6 1 -7 9 -4 18 7 21 14 7 14 -6 0 -13 -4 -16 -10z"/>
<path d="M5390 3666 c0 -2 7 -7 16 -10 8 -3 12 -2 9 4 -6 10 -25 14 -25 6z"/>
<path d="M4713 3653 c9 -2 23 -2 30 0 6 3 -1 5 -18 5 -16 0 -22 -2 -12 -5z"/>
<path d="M4828 3653 c7 -3 16 -2 19 1 4 3 -2 6 -13 5 -11 0 -14 -3 -6 -6z"/>
<path d="M5108 3636 c-54 -32 -60 -42 -11 -17 23 11 44 25 48 31 8 13 7 13
-37 -14z"/>
<path d="M5864 3589 c-10 -23 -24 -48 -32 -55 -11 -12 -11 -14 0 -14 8 0 24
23 36 52 26 62 23 76 -4 17z"/>
<path d="M5000 3580 c-8 -5 -10 -10 -5 -10 6 0 17 5 25 10 8 5 11 10 5 10 -5
0 -17 -5 -25 -10z"/>
<path d="M3835 3570 c11 -5 27 -9 35 -9 9 0 8 4 -5 9 -11 5 -27 9 -35 9 -9 0
-8 -4 5 -9z"/>
<path d="M3435 3536 c-16 -8 -39 -21 -50 -30 -11 -9 4 -4 33 11 45 22 55 24
63 12 7 -11 9 -11 9 4 0 20 -14 21 -55 3z"/>
<path d="M4008 3523 c7 -3 16 -2 19 1 4 3 -2 6 -13 5 -11 0 -14 -3 -6 -6z"/>
<path d="M4838 3523 c7 -3 16 -2 19 1 4 3 -2 6 -13 5 -11 0 -14 -3 -6 -6z"/>
<path d="M5175 3510 c-3 -6 1 -7 9 -4 18 7 21 14 7 14 -6 0 -13 -4 -16 -10z"/>
<path d="M5702 3484 c-40 -20 -72 -38 -69 -40 2 -2 21 5 43 15 52 24 105 48
124 54 10 4 9 6 -5 6 -11 0 -53 -16 -93 -35z"/>
<path d="M4098 3503 c7 -3 16 -2 19 1 4 3 -2 6 -13 5 -11 0 -14 -3 -6 -6z"/>
<path d="M4748 3503 c6 -2 18 -2 25 0 6 3 1 5 -13 5 -14 0 -19 -2 -12 -5z"/>
<path d="M4163 3493 c9 -2 23 -2 30 0 6 3 -1 5 -18 5 -16 0 -22 -2 -12 -5z"/>
<path d="M4683 3493 c9 -2 25 -2 35 0 9 3 1 5 -18 5 -19 0 -27 -2 -17 -5z"/>
<path d="M5143 3493 c-8 -3 -12 -20 -12 -41 2 -34 2 -35 6 -7 3 17 9 36 15 43
11 13 10 13 -9 5z"/>
<path d="M4238 3483 c12 -2 30 -2 40 0 9 3 -1 5 -23 4 -22 0 -30 -2 -17 -4z"/>
<path d="M4613 3483 c9 -2 25 -2 35 0 9 3 1 5 -18 5 -19 0 -27 -2 -17 -5z"/>
<path d="M3335 3470 c-3 -6 1 -7 9 -4 18 7 21 14 7 14 -6 0 -13 -4 -16 -10z"/>
<path d="M4393 3473 c26 -2 67 -2 90 0 23 2 2 3 -48 3 -49 0 -68 -1 -42 -3z"/>
<path d="M3501 3454 c0 -11 3 -14 6 -6 3 7 2 16 -1 19 -3 4 -6 -2 -5 -13z"/>
<path d="M5122 3370 c0 -14 2 -19 5 -12 2 6 2 18 0 25 -3 6 -5 1 -5 -13z"/>
<path d="M5556 3361 c-10 -11 -16 -26 -13 -33 4 -10 6 -10 6 1 1 8 8 23 18 33
9 10 14 18 11 18 -3 0 -13 -9 -22 -19z"/>
<path d="M5112 3320 c0 -14 2 -19 5 -12 2 6 2 18 0 25 -3 6 -5 1 -5 -13z"/>
<path d="M5102 3270 c0 -14 2 -19 5 -12 2 6 2 18 0 25 -3 6 -5 1 -5 -13z"/>
<path d="M5091 3224 c0 -11 3 -14 6 -6 3 7 2 16 -1 19 -3 4 -6 -2 -5 -13z"/>
<path d="M5528 3215 c2 -14 6 -25 8 -25 2 0 4 11 4 25 0 14 -4 25 -9 25 -4 0
-6 -11 -3 -25z"/>
<path d="M5081 3184 c0 -11 3 -14 6 -6 3 7 2 16 -1 19 -3 4 -6 -2 -5 -13z"/>
<path d="M3600 3155 c0 -5 5 -17 10 -25 5 -8 10 -10 10 -5 0 6 -5 17 -10 25
-5 8 -10 11 -10 5z"/>
<path d="M5071 3144 c0 -11 3 -14 6 -6 3 7 2 16 -1 19 -3 4 -6 -2 -5 -13z"/>
<path d="M3630 3076 c0 -11 40 -86 45 -86 3 0 -4 19 -16 43 -23 45 -29 54 -29
43z"/>
<path d="M5600 3061 c0 -11 4 -22 9 -25 4 -3 6 6 3 19 -5 30 -12 33 -12 6z"/>
<path d="M5031 3023 c-1 -6 -4 -20 -7 -30 -5 -17 -5 -17 6 0 6 10 9 23 6 30
-3 9 -5 9 -5 0z"/>
<path d="M5006 2955 c-9 -26 -7 -32 5 -12 6 10 9 21 6 23 -2 3 -7 -2 -11 -11z"/>
<path d="M5586 2955 c-9 -26 -7 -32 5 -12 6 10 9 21 6 23 -2 3 -7 -2 -11 -11z"/>
<path d="M3715 2900 c9 -16 18 -30 21 -30 2 0 -2 14 -11 30 -9 17 -18 30 -21
30 -2 0 2 -13 11 -30z"/>
<path d="M4966 2863 c-6 -14 -5 -15 5 -6 7 7 10 15 7 18 -3 3 -9 -2 -12 -12z"/>
<path d="M2400 2848 c99 -21 165 -51 221 -101 70 -62 94 -103 107 -189 6 -39
22 -86 37 -112 41 -70 50 -66 11 6 -24 44 -36 83 -41 128 -9 82 -42 130 -141
206 -40 31 -164 74 -206 73 -30 -1 -29 -2 12 -11z"/>
<path d="M4809 2623 l-34 -38 38 34 c20 19 37 36 37 38 0 8 -8 0 -41 -34z"/>
<path d="M3920 2637 c0 -2 15 -16 33 -33 l32 -29 -29 33 c-28 30 -36 37 -36
29z"/>
<path d="M5652 2615 c0 -16 2 -22 5 -12 2 9 2 23 0 30 -3 6 -5 -1 -5 -18z"/>
<path d="M4749 2563 c-13 -16 -12 -17 4 -4 16 13 21 21 13 21 -2 0 -10 -8 -17
-17z"/>
<path d="M5621 2499 c-6 -18 -11 -37 -10 -43 0 -6 7 7 15 28 8 22 12 41 10 43
-2 2 -9 -10 -15 -28z"/>
<path d="M4630 2485 c-14 -8 -20 -14 -14 -15 5 0 19 7 30 15 24 18 16 19 -16
0z"/>
<path d="M4248 2443 c7 -3 16 -2 19 1 4 3 -2 6 -13 5 -11 0 -14 -3 -6 -6z"/>
<path d="M4518 2443 c7 -3 16 -2 19 1 4 3 -2 6 -13 5 -11 0 -14 -3 -6 -6z"/>
<path d="M4298 2433 c12 -2 30 -2 40 0 9 3 -1 5 -23 4 -22 0 -30 -2 -17 -4z"/>
<path d="M4453 2433 c9 -2 23 -2 30 0 6 3 -1 5 -18 5 -16 0 -22 -2 -12 -5z"/>
<path d="M2840 2345 c19 -19 36 -35 39 -35 3 0 -10 16 -29 35 -19 19 -36 35
-39 35 -3 0 10 -16 29 -35z"/>
<path d="M4014 2321 c116 -118 299 -168 460 -126 68 18 129 52 188 105 44 40
39 51 -10 26 -15 -7 -65 -23 -111 -35 -165 -41 -362 -19 -525 60 -22 10 -42
19 -45 19 -3 0 17 -22 43 -49z"/>
<path d="M5566 2355 c-9 -26 -7 -32 5 -12 6 10 9 21 6 23 -2 3 -7 -2 -11 -11z"/>
<path d="M4080 2340 c8 -5 20 -10 25 -10 6 0 3 5 -5 10 -8 5 -19 10 -25 10 -5
0 -3 -5 5 -10z"/>
<path d="M4615 2335 c-25 -12 -26 -14 -5 -9 28 7 60 23 45 23 -5 0 -23 -6 -40
-14z"/>
<path d="M4128 2323 c7 -3 16 -2 19 1 4 3 -2 6 -13 5 -11 0 -14 -3 -6 -6z"/>
<path d="M4558 2313 c7 -3 16 -2 19 1 4 3 -2 6 -13 5 -11 0 -14 -3 -6 -6z"/>
<path d="M4020 2285 c13 -14 26 -25 28 -25 3 0 -5 11 -18 25 -13 14 -26 25
-28 25 -3 0 5 -11 18 -25z"/>
<path d="M4208 2303 c7 -3 16 -2 19 1 4 3 -2 6 -13 5 -11 0 -14 -3 -6 -6z"/>
<path d="M4518 2303 c7 -3 16 -2 19 1 4 3 -2 6 -13 5 -11 0 -14 -3 -6 -6z"/>
<path d="M4258 2293 c6 -2 18 -2 25 0 6 3 1 5 -13 5 -14 0 -19 -2 -12 -5z"/>
<path d="M4453 2293 c9 -2 25 -2 35 0 9 3 1 5 -18 5 -19 0 -27 -2 -17 -5z"/>
<path d="M4343 2283 c15 -2 39 -2 55 0 15 2 2 4 -28 4 -30 0 -43 -2 -27 -4z"/>
<path d="M2910 2276 c0 -2 7 -9 15 -16 13 -11 14 -10 9 4 -5 14 -24 23 -24 12z"/>
<path d="M4610 2239 c-22 -18 -22 -19 -3 -10 12 6 25 16 28 21 9 15 3 12 -25
-11z"/>
<path d="M4120 2216 c0 -2 7 -7 16 -10 8 -3 12 -2 9 4 -6 10 -25 14 -25 6z"/>
<path d="M5460 2189 c-12 -16 -21 -32 -18 -34 2 -2 13 12 26 31 28 42 21 45
-8 3z"/>
<path d="M4540 2200 c-9 -6 -10 -10 -3 -10 6 0 15 5 18 10 8 12 4 12 -15 0z"/>
<path d="M4228 2173 c7 -3 16 -2 19 1 4 3 -2 6 -13 5 -11 0 -14 -3 -6 -6z"/>
<path d="M4468 2173 c7 -3 16 -2 19 1 4 3 -2 6 -13 5 -11 0 -14 -3 -6 -6z"/>
<path d="M4273 2163 c9 -2 23 -2 30 0 6 3 -1 5 -18 5 -16 0 -22 -2 -12 -5z"/>
<path d="M4413 2163 c9 -2 23 -2 30 0 6 3 -1 5 -18 5 -16 0 -22 -2 -12 -5z"/>
<path d="M5385 2130 c-3 -5 -1 -10 4 -10 6 0 11 5 11 10 0 6 -2 10 -4 10 -3 0
-8 -4 -11 -10z"/>
<path d="M5399 2103 c-13 -16 -12 -17 4 -4 16 13 21 21 13 21 -2 0 -10 -8 -17
-17z"/>
<path d="M5320 2049 c-78 -57 -87 -70 -12 -19 54 37 82 61 70 60 -2 -1 -28
-19 -58 -41z"/>
<path d="M5208 1974 c-38 -20 -36 -28 2 -9 17 9 30 18 30 20 0 7 -1 6 -32 -11z"/>
<path d="M5144 1934 c-18 -14 -18 -15 4 -4 12 6 22 13 22 15 0 8 -5 6 -26 -11z"/>
<path d="M5025 1880 c-44 -21 -75 -39 -70 -39 6 0 46 17 90 38 44 22 76 39 70
39 -5 0 -46 -17 -90 -38z"/>
<path d="M4911 1833 c-20 -4 -62 -33 -48 -33 10 0 77 31 77 35 0 3 -1 4 -2 4
-2 -1 -14 -4 -27 -6z"/>
<path d="M4770 1775 c-19 -7 -28 -14 -20 -14 8 0 29 6 45 14 39 17 21 18 -25
0z"/>
<path d="M4695 1750 c-13 -6 -15 -9 -5 -9 8 0 22 4 30 9 18 12 2 12 -25 0z"/>
<path d="M4640 1740 c0 -6 -8 -10 -17 -11 -10 0 -13 -3 -7 -5 6 -3 21 -1 34 4
19 7 21 10 7 15 -10 4 -17 2 -17 -3z"/>
<path d="M6709 4173 c-13 -16 -12 -17 4 -4 9 7 17 15 17 17 0 8 -8 3 -21 -13z"/>
<path d="M6640 4095 c-13 -14 -19 -25 -14 -25 8 1 50 50 41 50 -2 0 -14 -11
-27 -25z"/>
<path d="M6584 4048 l-19 -23 23 19 c12 11 22 21 22 23 0 8 -8 2 -26 -19z"/>
<path d="M6519 4001 c-19 -14 -46 -34 -60 -44 l-24 -19 28 16 c15 9 37 23 50
31 13 8 27 12 32 8 4 -5 5 -3 2 4 -4 6 -1 13 5 16 7 2 11 7 8 9 -3 3 -21 -6
-41 -21z"/>
<path d="M6395 3925 c-16 -8 -23 -14 -14 -15 8 0 24 7 35 15 23 18 18 18 -21
0z"/>
<path d="M6373 3755 c0 -27 2 -38 4 -22 2 15 2 37 0 50 -2 12 -4 0 -4 -28z"/>
<path d="M6595 3759 c-5 -5 -19 -17 -30 -25 -11 -8 -1 -6 23 6 23 11 42 23 42
25 0 9 -25 4 -35 -6z"/>
<path d="M6510 3710 c-8 -5 -10 -10 -5 -10 6 0 17 5 25 10 8 5 11 10 5 10 -5
0 -17 -5 -25 -10z"/>
<path d="M6440 3680 c-8 -5 -10 -10 -5 -10 6 0 17 5 25 10 8 5 11 10 5 10 -5
0 -17 -5 -25 -10z"/>
<path d="M1798 3220 c-26 -14 -50 -29 -53 -33 -3 -4 -2 -5 2 -2 3 3 12 0 20
-6 10 -9 13 -8 13 2 0 8 10 20 21 28 19 11 21 11 16 -1 -3 -8 1 -15 8 -15 7 0
10 8 7 21 -3 12 -2 19 1 16 4 -3 22 -61 42 -129 29 -102 33 -126 23 -139 -11
-13 -10 -14 9 -4 l22 12 -19 52 c-10 29 -28 91 -40 138 -12 47 -22 85 -23 86
-1 0 -23 -11 -49 -26z"/>
<path d="M1638 3153 c7 -3 16 -2 19 1 4 3 -2 6 -13 5 -11 0 -14 -3 -6 -6z"/>
<path d="M1530 3026 c0 -62 -3 -128 -6 -146 l-7 -32 64 7 c67 7 223 44 216 52
-2 2 -38 -5 -78 -16 -41 -12 -99 -20 -129 -20 l-55 1 3 76 c3 52 9 83 19 94
14 15 14 20 2 35 -8 9 -9 14 -3 10 7 -4 14 -1 17 7 4 10 0 12 -15 8 -18 -4
-20 -2 -16 16 4 12 2 22 -3 22 -5 0 -9 -51 -9 -114z m30 34 c0 -5 -5 -10 -11
-10 -5 0 -7 5 -4 10 3 6 8 10 11 10 2 0 4 -4 4 -10z"/>
<path d="M1844 2935 c-10 -8 -14 -15 -8 -15 5 0 19 7 30 15 10 8 14 15 8 15
-5 0 -19 -7 -30 -15z"/>
<path d="M3276 1407 c3 -10 9 -15 12 -12 3 3 0 11 -7 18 -10 9 -11 8 -5 -6z"/>
<path d="M2960 1336 c0 -2 7 -7 16 -10 8 -3 12 -2 9 4 -6 10 -25 14 -25 6z"/>
<path d="M2824 1288 c0 -10 3 -18 7 -18 4 0 9 8 11 18 3 10 0 19 -6 19 -7 0
-12 -9 -12 -19z"/>
<path d="M2863 1283 c0 -8 6 -9 19 -2 10 5 18 11 18 12 0 2 -8 3 -18 3 -10 0
-19 -6 -19 -13z"/>
</g>
</svg>
